<svg width="29" height="28" viewBox="0 0 29 28" fill="none" xmlns="http://www.w3.org/2000/svg">
<path fill-rule="evenodd" clip-rule="evenodd" d="M6.36098 3.52802H22.6383C23.9172 3.52802 24.9636 4.57442 24.9636 5.85335V22.1307C24.9636 23.4096 23.9172 24.456 22.6383 24.456H6.36098C5.07042 24.456 4.03564 23.4096 4.03564 22.1307V5.85335C4.03564 4.57442 5.07042 3.52802 6.36098 3.52802ZM15.6627 15.1547H19.1507C19.7901 15.1547 20.3133 14.6315 20.3133 13.992C20.3133 13.3526 19.7901 12.8294 19.1507 12.8294H15.6627V9.34135C15.6627 8.70189 15.1395 8.17869 14.5 8.17869C13.8605 8.17869 13.3373 8.70189 13.3373 9.34135V12.8294H9.84933C9.20986 12.8294 8.68666 13.3526 8.68666 13.992C8.68666 14.6315 9.20986 15.1547 9.84933 15.1547H13.3373V18.6427C13.3373 19.2822 13.8605 19.8054 14.5 19.8054C15.1395 19.8054 15.6627 19.2822 15.6627 18.6427V15.1547Z" fill="#082B1C"/>
</svg>
