<svg id="Capa_1" enable-background="new 0 0 512 512" height="512" viewBox="0 0 512 512" width="512" xmlns="http://www.w3.org/2000/svg"><g><path d="m498.701 126.494c-.559.063-213.336.063-213.895 0-7.482.846-13.299 7.189-13.299 14.897v209.219c0 8.284 6.716 15 15 15h90.246v22.05c0 23.051 18.88 41.806 42.087 41.808l29.239.002c14.721.001 26.697 11.783 26.697 26.266s-11.976 26.264-26.698 26.264h-365.182c-6.666 0-12.089-5.297-12.089-11.808v-264.499h25.807c8.284 0 15-6.716 15-15v-131.107c0-8.284-6.716-15-15-15h-25.807v-29.586c0-8.284-6.716-15-15-15s-15 6.716-15 15v29.586h-25.807c-8.284 0-15 6.716-15 15v131.107c0 8.284 6.716 15 15 15h25.807v264.499c0 23.053 18.881 41.808 42.089 41.808h365.182c31.264 0 56.699-25.24 56.699-56.266 0-31.023-25.434-56.265-56.696-56.266l-29.238-.002c-6.666 0-12.089-5.297-12.089-11.808v-22.05h90.246c8.284 0 15-6.716 15-15v-209.217c0-7.709-5.817-14.052-13.299-14.897zm-112.336 172.501c-2.924 2.893-6.739 4.338-10.551 4.338-3.866 0-7.729-1.484-10.662-4.449-5.827-5.888-5.778-15.386.11-21.213l21.106-20.887-16.122-15.954c-2.847-2.817-4.449-6.656-4.449-10.662 0-4.005 1.602-7.845 4.449-10.662l26.779-26.501c5.889-5.826 15.386-5.777 21.213.111 5.828 5.888 5.778 15.386-.11 21.213l-16.005 15.839 16.122 15.954c2.847 2.817 4.449 6.656 4.449 10.662 0 4.005-1.602 7.845-4.449 10.662z"/><path d="m483.912 96.597v-37.011c0-8.284-6.716-15-15-15h-22.057v-29.586c0-8.284-6.716-15-15-15s-15 6.716-15 15v29.586h-50.201v-29.586c0-8.284-6.716-15-15-15s-15 6.716-15 15v29.586h-22.057c-8.284 0-15 6.716-15 15v37.011z"/></g></svg>