<svg id="Capa_1" enable-background="new 0 0 512 512" height="512" viewBox="0 0 512 512" width="512" xmlns="http://www.w3.org/2000/svg"><g><g><path d="m61.305 246v124.446c0 22.775 5.414 44.306 15.011 63.387l10-91.333-10-96.5z" fill="#dce6eb"/><path d="m398.859 0c-46.563 0-84.445 37.882-84.445 84.446v286c-.001 61.511-50.044 111.554-111.555 111.554s-111.554-50.043-111.554-111.554v-124.446h-14.989v187.833c23.293 46.313 71.265 78.167 126.543 78.167 78.053 0 141.554-63.5 141.554-141.554v-286c0-30.021 24.424-54.446 54.445-54.446s54.446 24.424 54.446 54.446v312.554h30v-312.554c.001-46.564-37.882-84.446-84.445-84.446z" fill="#c8d2dc"/></g><g><path d="m213.673 134.007h72.822v30h-72.822z" fill="#c8d2dc"/></g><g><path d="m213.673 37.246h72.822v30h-72.822z" fill="#c8d2dc"/></g><g><path d="m453.888 467h30v45h-30z" fill="#c8d2dc"/></g><path d="m134.244 27.336h89.43v146.581h-89.43z" fill="#07485e" transform="matrix(-1 0 0 -1 357.917 201.253)"/><path d="m434.165 391.49h69.446v81.021h-69.446z" fill="#09607d"/><g><path d="m38.388 0c-16.569 0-30 13.431-30 30v196.848c0 16.569 13.431 30 30 30h37.928l10-128.424-10-128.424z" fill="#0b799d"/><path d="m76.316 0h67.928v256.848h-67.928z" fill="#09607d"/></g></g></svg>