<svg width="80" height="81" viewBox="0 0 80 81" fill="none" xmlns="http://www.w3.org/2000/svg">
<circle cx="40" cy="40.796" r="39.3702" stroke="#CECECE" stroke-width="1.2596"/>
<path d="M56.3303 38.341L55.459 36.1627L53.9141 32.2999C52.5877 28.9844 49.4241 26.8425 45.8528 26.8425H36.0079C32.4373 26.8425 29.273 28.9844 27.9466 32.2999L26.4017 36.1627L25.5303 38.341C23.6606 39.0518 22.3257 40.8472 22.3257 42.9666V46.6875C22.3257 47.9371 22.8032 49.065 23.566 49.9379V54.1294C23.566 55.4991 24.6768 56.61 26.0466 56.61H28.5272C29.897 56.61 31.0079 55.4991 31.0079 54.1294V51.6487H50.8528V54.1294C50.8528 55.4991 51.9637 56.61 53.3334 56.61H55.8141C57.1838 56.61 58.2947 55.4991 58.2947 54.1294V49.9379C59.0575 49.0658 59.535 47.9379 59.535 46.6875V42.9666C59.535 40.8472 58.2001 39.0518 56.3303 38.341ZM32.5528 34.1425C33.1179 32.7301 34.4861 31.8038 36.0079 31.8038H45.8528C47.3745 31.8038 48.7427 32.7301 49.3079 34.1425L50.8528 38.0053H31.0079L32.5528 34.1425ZM28.5272 46.672C27.0389 46.672 26.0466 45.6828 26.0466 44.1991C26.0466 42.7154 27.0389 41.7263 28.5272 41.7263C30.0156 41.7263 32.2482 43.9518 32.2482 45.4356C32.2482 46.9193 30.0156 46.672 28.5272 46.672ZM53.3334 46.672C51.8451 46.672 49.6125 46.9193 49.6125 45.4356C49.6125 43.9518 51.8451 41.7263 53.3334 41.7263C54.8218 41.7263 55.8141 42.7154 55.8141 44.1991C55.8141 45.6828 54.8218 46.672 53.3334 46.672Z" fill="#656565"/>
</svg>
