<svg width="48" height="34" viewBox="0 0 48 34" fill="none" xmlns="http://www.w3.org/2000/svg">
<rect x="6.5" y="1" width="35" height="25.0504" rx="1.5" fill="#F2FDF8" stroke="black"/>
<path d="M22.2 4.64441C20.4 4.64441 18.6 5.82852 18 6.42057V7.01262L24.6 24.1822L28.2 23.5901L32.4 20.6299L34.2 17.0775V11.7491L32.4 7.60468L28.2 4.64441H22.2Z" fill="#69E5AF"/>
<rect y="13.5251" width="4.8" height="1.18411" fill="black"/>
<mask id="path-4-inside-1" fill="white">
<path fill-rule="evenodd" clip-rule="evenodd" d="M8.74417 1.60005C7.43024 1.07333 6 2.04088 6 3.45645V25.182C6 26.007 6.50649 26.7473 7.27538 27.0461L23.0069 33.1613C24.3363 33.6781 25.7638 32.6771 25.731 31.2512L25.5682 24.1821H26.8C31.2183 24.1821 34.8 20.6004 34.8 16.1821V12.0523C34.8 7.63404 31.2183 4.05231 26.8 4.05231H22.4C20.7987 4.05231 19.3073 4.52279 18.0564 5.33305L8.74417 1.60005ZM25.5451 23.1821L25.2304 9.51601C25.212 8.71572 24.7181 8.00352 23.9751 7.70567L19.2367 5.80617C20.1868 5.32404 21.2616 5.05231 22.4 5.05231H26.8C30.666 5.05231 33.8 8.18632 33.8 12.0523V16.1821C33.8 20.0481 30.666 23.1821 26.8 23.1821H25.5451Z"/>
</mask>
<path fill-rule="evenodd" clip-rule="evenodd" d="M8.74417 1.60005C7.43024 1.07333 6 2.04088 6 3.45645V25.182C6 26.007 6.50649 26.7473 7.27538 27.0461L23.0069 33.1613C24.3363 33.6781 25.7638 32.6771 25.731 31.2512L25.5682 24.1821H26.8C31.2183 24.1821 34.8 20.6004 34.8 16.1821V12.0523C34.8 7.63404 31.2183 4.05231 26.8 4.05231H22.4C20.7987 4.05231 19.3073 4.52279 18.0564 5.33305L8.74417 1.60005ZM25.5451 23.1821L25.2304 9.51601C25.212 8.71572 24.7181 8.00352 23.9751 7.70567L19.2367 5.80617C20.1868 5.32404 21.2616 5.05231 22.4 5.05231H26.8C30.666 5.05231 33.8 8.18632 33.8 12.0523V16.1821C33.8 20.0481 30.666 23.1821 26.8 23.1821H25.5451Z" fill="white"/>
<path d="M8.74417 1.60005L9.11626 0.671852L8.74417 1.60005ZM7.27538 27.0461L6.91306 27.9782L6.91306 27.9782L7.27538 27.0461ZM23.0069 33.1613L23.3692 32.2293L23.0069 33.1613ZM25.731 31.2512L26.7307 31.2281L25.731 31.2512ZM25.5682 24.1821V23.1821H24.5449L24.5684 24.2052L25.5682 24.1821ZM18.0564 5.33305L17.6843 6.26125L18.1652 6.45403L18.6001 6.17235L18.0564 5.33305ZM25.2304 9.51601L24.2306 9.53903V9.53903L25.2304 9.51601ZM25.5451 23.1821L24.5454 23.2052L24.5679 24.1821H25.5451V23.1821ZM23.9751 7.70567L24.3472 6.77747L23.9751 7.70567ZM19.2367 5.80617L18.7841 4.91442L16.816 5.91316L18.8646 6.73437L19.2367 5.80617ZM7 3.45645C7 2.74866 7.71512 2.26489 8.37209 2.52825L9.11626 0.671852C7.14536 -0.118221 5 1.3331 5 3.45645H7ZM7 25.182V3.45645H5V25.182H7ZM7.63769 26.1141C7.25325 25.9646 7 25.5945 7 25.182H5C5 26.4194 5.75974 27.5299 6.91306 27.9782L7.63769 26.1141ZM23.3692 32.2293L7.63769 26.1141L6.91306 27.9782L22.6446 34.0934L23.3692 32.2293ZM24.7313 31.2742C24.7477 31.9871 24.0339 32.4877 23.3692 32.2293L22.6446 34.0934C24.6387 34.8685 26.78 33.367 26.7307 31.2281L24.7313 31.2742ZM24.5684 24.2052L24.7313 31.2742L26.7307 31.2281L26.5679 24.1591L24.5684 24.2052ZM25.5682 25.1821H26.8V23.1821H25.5682V25.1821ZM26.8 25.1821C31.7706 25.1821 35.8 21.1527 35.8 16.1821H33.8C33.8 20.0481 30.666 23.1821 26.8 23.1821V25.1821ZM35.8 16.1821V12.0523H33.8V16.1821H35.8ZM35.8 12.0523C35.8 7.08175 31.7706 3.05231 26.8 3.05231V5.05231C30.666 5.05231 33.8 8.18632 33.8 12.0523H35.8ZM26.8 3.05231H22.4V5.05231H26.8V3.05231ZM22.4 3.05231C20.6 3.05231 18.9206 3.58177 17.5127 4.49375L18.6001 6.17235C19.6939 5.46381 20.9974 5.05231 22.4 5.05231V3.05231ZM8.37209 2.52825L17.6843 6.26125L18.4285 4.40485L9.11626 0.671852L8.37209 2.52825ZM24.2306 9.53903L24.5454 23.2052L26.5449 23.1591L26.2301 9.49298L24.2306 9.53903ZM23.603 8.63386C23.9745 8.78279 24.2214 9.13889 24.2306 9.53903L26.2301 9.49298C26.2025 8.29255 25.4617 7.22425 24.3472 6.77747L23.603 8.63386ZM18.8646 6.73437L23.603 8.63386L24.3472 6.77747L19.6087 4.87797L18.8646 6.73437ZM22.4 4.05231C21.1008 4.05231 19.8712 4.36276 18.7841 4.91442L19.6892 6.69792C20.5023 6.28532 21.4225 6.05231 22.4 6.05231V4.05231ZM26.8 4.05231H22.4V6.05231H26.8V4.05231ZM34.8 12.0523C34.8 7.63404 31.2183 4.05231 26.8 4.05231V6.05231C30.1137 6.05231 32.8 8.7386 32.8 12.0523H34.8ZM34.8 16.1821V12.0523H32.8V16.1821H34.8ZM26.8 24.1821C31.2183 24.1821 34.8 20.6004 34.8 16.1821H32.8C32.8 19.4959 30.1137 22.1821 26.8 22.1821V24.1821ZM25.5451 24.1821H26.8V22.1821H25.5451V24.1821Z" fill="black" mask="url(#path-4-inside-1)"/>
<rect x="43.2002" y="13.5251" width="4.8" height="1.18411" fill="black"/>
<rect x="36.5" y="11.657" width="2.6" height="4.92054" rx="1.3" stroke="black"/>
</svg>
