<svg height="480pt" viewBox="0 0 480 480" width="480pt" xmlns="http://www.w3.org/2000/svg"><path d="m248 40.199219v-40.199219h-16v40.199219c-104.097656 4.296875-187.503906 87.703125-191.800781 191.800781h-40.199219v16h40.199219c4.296875 104.097656 87.703125 187.503906 191.800781 191.800781v40.199219h16v-40.199219c104.097656-4.296875 187.503906-87.703125 191.800781-191.800781h40.199219v-16h-40.199219c-4.296875-104.097656-87.703125-187.503906-191.800781-191.800781zm0 56.207031c73.105469 4.136719 131.457031 62.488281 135.59375 135.59375h-104.394531c-3.234375-15.699219-15.5-27.964844-31.199219-31.199219v-23.503906l46.113281 14.886719c.792969.257812 1.621094.386718 2.453125.382812 3.140625 0 5.992188-1.835937 7.285156-4.695312 1.296876-2.859375.800782-6.214844-1.265624-8.574219l-54.585938-62.304687zm135.59375 151.59375c-4.136719 73.105469-62.488281 131.457031-135.59375 135.59375v-104.394531c15.699219-3.234375 27.964844-15.5 31.199219-31.199219zm-143.59375-115.855469 31.472656 35.910157-29.007812-9.367188c-1.605469-.511719-3.324219-.511719-4.929688 0l-29.007812 9.367188zm-63.257812 56.800781c1.984374 3 5.726562 4.308594 9.144531 3.199219l46.113281-14.847656v23.503906c-15.699219 3.234375-27.964844 15.5-31.199219 31.199219h-104.394531c4.136719-73.105469 62.488281-131.457031 135.59375-135.59375v20.585938l-54.585938 62.304687c-2.371093 2.703125-2.648437 6.664063-.671874 9.671875zm55.257812-132.746093v24.207031c-81.933594 4.171875-147.421875 69.660156-151.59375 151.59375h-24.207031c4.261719-95.269531 80.53125-171.539062 175.800781-175.800781zm0 367.601562c-95.269531-4.261719-171.539062-80.53125-175.800781-175.800781h24.207031c4.171875 81.933594 69.660156 147.421875 151.59375 151.59375zm0-40.207031c-73.105469-4.136719-131.457031-62.488281-135.59375-135.59375h104.394531c3.234375 15.699219 15.5 27.964844 31.199219 31.199219zm8-119.59375c-13.253906 0-24-10.746094-24-24s10.746094-24 24-24 24 10.746094 24 24-10.746094 24-24 24zm8 159.800781v-24.207031c81.933594-4.171875 147.421875-69.660156 151.59375-151.59375h24.207031c-4.261719 95.269531-80.53125 171.539062-175.800781 175.800781zm151.59375-191.800781c-4.171875-81.933594-69.660156-147.421875-151.59375-151.59375v-24.207031c95.269531 4.261719 171.539062 80.53125 175.800781 175.800781zm0 0"/><path d="m.289062 57.984375c.085938.328125.453126 1.390625.550782 1.601563l24 48c1.351562 2.714843 4.125 4.429687 7.160156 4.429687s5.808594-1.714844 7.160156-4.429687l24-48c.097656-.203126.464844-1.265626.550782-1.601563.304687-1.316406.304687-2.683594 0-4-.085938-.328125-.453126-1.390625-.550782-1.601563l-24-48c-1.503906-2.519531-4.222656-4.066406-7.160156-4.066406s-5.65625 1.546875-7.160156 4.066406l-24 48c-.097656.203126-.464844 1.265626-.550782 1.601563-.082031.324219-.136718.652344-.167968.984375-.11718775.660156-.11718775 1.335938 0 2 .027344.339844.085937.679688.167968 1.015625zm31.710938-32.097656 11.054688 22.113281h-22.109376zm11.054688 38.113281-11.054688 22.113281-11.054688-22.113281zm0 0"/><path d="m143.910156 262.839844-15.832031 2.296875c.402344 2.75 10.523437 67.757812 85.984375 86.625l3.875-15.523438c-64.761719-16.191406-73.671875-71.070312-74.027344-73.398437zm0 0"/><path d="m264 344 1.136719 7.921875c2.75-.394531 67.75-10.523437 86.625-85.976563l-15.523438-3.890624c-16.191406 64.800781-71.070312 73.679687-73.398437 74.035156zm0 0"/></svg>