<svg width="210" height="228" viewBox="0 0 210 228" fill="none" xmlns="http://www.w3.org/2000/svg">
<path d="M113.147 63.1004V39.6005C113.147 37.1075 112.156 34.7166 110.394 32.9538C108.631 31.1909 106.24 30.2006 103.747 30.2006C101.254 30.2006 98.8629 31.1909 97.1001 32.9538C95.3373 34.7166 94.3469 37.1075 94.3469 39.6005V63.1004H70.847V39.6005C70.847 37.1075 69.8567 34.7166 68.0939 32.9538C66.331 31.1909 63.9401 30.2006 61.4471 30.2006C58.9541 30.2006 56.5632 31.1909 54.8003 32.9538C53.0375 34.7166 52.0471 37.1075 52.0471 39.6005V63.1004C50.3846 63.1011 48.7758 63.6893 47.5048 64.7611C46.2339 65.833 45.3827 67.3195 45.1016 68.9581C44.8204 70.5967 45.1274 72.282 45.9683 73.7162C46.8092 75.1504 48.1299 76.2413 49.6972 76.7961V96.0002C49.7064 103.083 51.9971 109.975 56.2298 115.653C60.4625 121.332 66.4121 125.497 73.197 127.529V140.65C73.197 141.273 73.4446 141.871 73.8853 142.312C74.326 142.752 74.9238 143 75.547 143H89.6469C90.2702 143 90.8679 142.752 91.3086 142.312C91.7493 141.871 91.9969 141.273 91.9969 140.65V127.529C98.7818 125.497 104.731 121.332 108.964 115.653C113.197 109.975 115.488 103.083 115.497 96.0002V76.8003C117.065 76.2456 118.386 75.1546 119.228 73.7199C120.069 72.2852 120.377 70.5993 120.096 68.9599C119.814 67.3206 118.963 65.8335 117.691 64.7612C116.42 63.689 114.81 63.1008 113.147 63.1004ZM99.0469 39.6005C99.0469 38.354 99.5421 37.1586 100.423 36.2772C101.305 35.3957 102.5 34.9006 103.747 34.9006C104.993 34.9006 106.189 35.3957 107.07 36.2772C107.952 37.1586 108.447 38.354 108.447 39.6005V63.1004H99.0469V39.6005ZM56.7471 39.6005C56.7471 38.354 57.2423 37.1586 58.1237 36.2772C59.0051 35.3957 60.2006 34.9006 61.4471 34.9006C62.6936 34.9006 63.8891 35.3957 64.7705 36.2772C65.6519 37.1586 66.1471 38.354 66.1471 39.6005V63.1004H56.7471V39.6005ZM87.297 138.3H77.897V128.563C81.0142 129.012 84.1798 129.012 87.297 128.563V138.3ZM110.797 81.9003H70.847C70.2238 81.9003 69.6261 82.1479 69.1853 82.5886C68.7446 83.0293 68.4971 83.627 68.4971 84.2503C68.4971 84.8736 68.7446 85.4713 69.1853 85.912C69.6261 86.3527 70.2238 86.6003 70.847 86.6003H110.797V96.0002C110.797 103.479 107.826 110.652 102.537 115.941C97.2488 121.229 90.076 124.2 82.597 124.2C75.1179 124.2 67.9452 121.229 62.6567 115.941C57.3682 110.652 54.3971 103.479 54.3971 96.0002V86.6003H61.4471C62.0703 86.6003 62.6681 86.3527 63.1088 85.912C63.5495 85.4713 63.7971 84.8736 63.7971 84.2503C63.7971 83.627 63.5495 83.0293 63.1088 82.5886C62.6681 82.1479 62.0703 81.9003 61.4471 81.9003H54.3971V77.2003H110.797V81.9003ZM114.813 71.8109C114.595 72.0301 114.335 72.2039 114.049 72.3222C113.763 72.4405 113.456 72.5011 113.147 72.5004H52.0471C51.4239 72.5004 50.8262 72.2528 50.3854 71.8121C49.9447 71.3714 49.6972 70.7736 49.6972 70.1504C49.6972 69.5271 49.9447 68.9294 50.3854 68.4887C50.8262 68.048 51.4239 67.8004 52.0471 67.8004H113.147C113.611 67.8009 114.065 67.9389 114.451 68.1969C114.837 68.4549 115.138 68.8214 115.317 69.2503C115.495 69.6791 115.542 70.1511 115.453 70.6068C115.363 71.0625 115.141 71.4814 114.813 71.8109Z" fill="#082B1C"/>
<path d="M70.847 30.2006H77.585L75.5652 46.3591C75.5015 46.8671 75.6055 47.382 75.8614 47.8255C76.1172 48.269 76.5109 48.6168 76.9825 48.8161C77.4541 49.0153 77.9779 49.055 78.4742 48.9293C78.9705 48.8035 79.4122 48.5191 79.732 48.1193L98.5319 24.6194C98.8087 24.2737 98.9821 23.8569 99.0323 23.417C99.0825 22.9771 99.0074 22.5319 98.8156 22.1328C98.6238 21.7337 98.3232 21.3969 97.9483 21.1612C97.5735 20.9255 97.1397 20.8005 96.6969 20.8007H89.9589L91.9787 4.64215C92.0423 4.13413 91.9383 3.61922 91.6825 3.17574C91.4267 2.73225 91.033 2.38444 90.5614 2.18522C90.0897 1.98599 89.5659 1.94624 89.0696 2.07201C88.5733 2.19779 88.1317 2.4822 87.8119 2.88201L69.012 26.3819C68.7352 26.7275 68.5618 27.1443 68.5116 27.5843C68.4614 28.0242 68.5365 28.4694 68.7283 28.8685C68.9201 29.2676 69.2207 29.6044 69.5956 29.84C69.9704 30.0757 70.4042 30.2007 70.847 30.2006ZM86.2826 12.3178L84.9651 22.8592C84.9238 23.1899 84.9533 23.5255 85.0516 23.8439C85.1499 24.1623 85.3147 24.4561 85.5353 24.7059C85.7558 24.9557 86.0269 25.1557 86.3306 25.2927C86.6343 25.4298 86.9637 25.5006 87.2969 25.5006H91.8074L81.2619 38.6835L82.5793 28.142C82.6206 27.8113 82.5912 27.4757 82.4928 27.1572C82.3945 26.8388 82.2296 26.545 82.009 26.2952C81.7884 26.0454 81.5172 25.8453 81.2135 25.7084C80.9097 25.5714 80.5802 25.5006 80.247 25.5006H75.7365L86.2826 12.3178Z" fill="#082B1C"/>
<path d="M104.732 31.0789C106.634 31.0789 108.458 31.8345 109.803 33.1795C111.148 34.5245 111.903 36.3487 111.903 38.2508V64.5477H97.5596V38.2508C97.5596 36.3487 98.3152 34.5245 99.6602 33.1795C101.005 31.8345 102.829 31.0789 104.732 31.0789Z" fill="#A8F0D1"/>
<path d="M147.763 31.0789C149.665 31.0789 151.489 31.8345 152.834 33.1795C154.179 34.5245 154.935 36.3487 154.935 38.2508V64.5477H140.591V38.2508C140.591 36.3487 141.346 34.5245 142.691 33.1795C144.036 31.8345 145.861 31.0789 147.763 31.0789Z" fill="#A8F0D1"/>
<path d="M119.075 121.923H133.419V141.048H119.075V121.923Z" fill="#22C47D"/>
<path d="M157.325 64.5476C158.593 64.5476 159.809 65.0514 160.706 65.948C161.603 66.8447 162.107 68.0608 162.107 69.3289C162.107 70.597 161.603 71.8131 160.706 72.7097C159.809 73.6064 158.593 74.1101 157.325 74.1101H95.169C93.9009 74.1101 92.6848 73.6064 91.7882 72.7097C90.8915 71.8131 90.3878 70.597 90.3878 69.3289C90.3878 68.0608 90.8915 66.8447 91.7882 65.948C92.6848 65.0514 93.9009 64.5476 95.169 64.5476H157.325Z" fill="#5EBEF7"/>
<path d="M157.325 74.1101V95.6258C157.325 103.868 154.051 111.773 148.223 117.601C142.394 123.43 134.49 126.704 126.247 126.704C118.005 126.704 110.1 123.43 104.272 117.601C98.4433 111.773 95.169 103.868 95.169 95.6258V74.1101H157.325Z" fill="#22C47D"/>
<path d="M95.169 74.1101C93.9009 74.1101 92.6848 73.6064 91.7882 72.7097C90.8915 71.8131 90.3878 70.597 90.3878 69.3289C90.3878 68.0608 90.8915 66.8447 91.7882 65.948C92.6848 65.0514 93.9009 64.5476 95.169 64.5476H157.325C158.593 64.5476 159.809 65.0514 160.706 65.948C161.603 66.8447 162.107 68.0608 162.107 69.3289C162.107 70.597 161.603 71.8131 160.706 72.7097C159.809 73.6064 158.593 74.1101 157.325 74.1101H95.169Z" fill="#69E5AF"/>
<path d="M114.294 26.2976H123.857L121.466 45.4226L140.591 21.5164H131.028L133.419 2.39139L114.294 26.2976Z" fill="#22C47D"/>
<path d="M157.325 62.157V38.2508C157.325 35.7147 156.318 33.2824 154.524 31.4891C152.731 29.6958 150.299 28.6883 147.763 28.6883C145.227 28.6883 142.794 29.6958 141.001 31.4891C139.208 33.2824 138.2 35.7147 138.2 38.2508V62.157H114.294V38.2508C114.294 35.7147 113.287 33.2824 111.493 31.4891C109.7 29.6958 107.268 28.6883 104.732 28.6883C102.195 28.6883 99.7631 29.6958 97.9698 31.4891C96.1765 33.2824 95.169 35.7147 95.169 38.2508V62.157C93.4777 62.1577 91.8411 62.7561 90.5482 63.8465C89.2553 64.9369 88.3893 66.4491 88.1033 68.1161C87.8173 69.783 88.1296 71.4974 88.985 72.9564C89.8405 74.4154 91.184 75.5252 92.7784 76.0896V95.6258C92.7878 102.831 95.1181 109.842 99.424 115.619C103.73 121.396 109.782 125.632 116.685 127.7V141.048C116.685 141.682 116.936 142.29 117.385 142.738C117.833 143.186 118.441 143.438 119.075 143.438H133.419C134.053 143.438 134.661 143.186 135.109 142.738C135.558 142.29 135.81 141.682 135.81 141.048V127.7C142.712 125.632 148.764 121.396 153.07 115.619C157.376 109.842 159.706 102.831 159.716 95.6258V76.0938C161.311 75.5296 162.655 74.4196 163.512 72.9602C164.368 71.5007 164.68 69.7856 164.394 68.1179C164.108 66.4502 163.242 64.9373 161.948 63.8466C160.655 62.7558 159.017 62.1574 157.325 62.157ZM142.981 38.2508C142.981 36.9827 143.485 35.7666 144.382 34.8699C145.279 33.9733 146.495 33.4695 147.763 33.4695C149.031 33.4695 150.247 33.9733 151.144 34.8699C152.04 35.7666 152.544 36.9827 152.544 38.2508V62.157H142.981V38.2508ZM99.9503 38.2508C99.9503 36.9827 100.454 35.7666 101.351 34.8699C102.247 33.9733 103.463 33.4695 104.732 33.4695C106 33.4695 107.216 33.9733 108.112 34.8699C109.009 35.7666 109.513 36.9827 109.513 38.2508V62.157H99.9503V38.2508ZM131.028 138.657H121.466V128.751C124.637 129.209 127.857 129.209 131.028 128.751V138.657ZM154.935 81.282H114.294C113.66 81.282 113.052 81.5339 112.604 81.9822C112.155 82.4306 111.903 83.0386 111.903 83.6727C111.903 84.3067 112.155 84.9148 112.604 85.3631C113.052 85.8114 113.66 86.0633 114.294 86.0633H154.935V95.6258C154.935 103.234 151.912 110.531 146.532 115.911C141.152 121.291 133.856 124.313 126.247 124.313C118.639 124.313 111.342 121.291 105.962 115.911C100.582 110.531 97.5596 103.234 97.5596 95.6258V86.0633H104.732C105.366 86.0633 105.974 85.8114 106.422 85.3631C106.87 84.9148 107.122 84.3067 107.122 83.6727C107.122 83.0386 106.87 82.4306 106.422 81.9822C105.974 81.5339 105.366 81.282 104.732 81.282H97.5596V76.5008H154.935V81.282ZM159.02 71.0182C158.798 71.2412 158.534 71.4179 158.243 71.5383C157.952 71.6587 157.64 71.7203 157.325 71.7195H95.169C94.535 71.7195 93.9269 71.4677 93.4786 71.0193C93.0302 70.571 92.7784 69.963 92.7784 69.3289C92.7784 68.6949 93.0302 68.0868 93.4786 67.6385C93.9269 67.1902 94.535 66.9383 95.169 66.9383H157.325C157.798 66.9388 158.259 67.0792 158.652 67.3417C159.045 67.6042 159.351 67.977 159.533 68.4133C159.714 68.8495 159.762 69.3297 159.671 69.7932C159.58 70.2568 159.353 70.683 159.02 71.0182Z" fill="#082B1C"/>
<path d="M114.294 28.6883H121.149L119.094 45.1262C119.029 45.643 119.135 46.1668 119.395 46.618C119.655 47.0691 120.056 47.423 120.536 47.6256C121.015 47.8283 121.548 47.8687 122.053 47.7408C122.558 47.6128 123.007 47.3235 123.333 46.9168L142.458 23.0105C142.739 22.6589 142.916 22.2349 142.967 21.7874C143.018 21.3398 142.941 20.887 142.746 20.481C142.551 20.075 142.245 19.7323 141.864 19.4926C141.483 19.2528 141.041 19.1257 140.591 19.1258H133.736L135.791 2.68784C135.856 2.17103 135.75 1.64722 135.49 1.19607C135.23 0.74491 134.829 0.391091 134.349 0.188419C133.869 -0.0142542 133.337 -0.0546911 132.832 0.0732579C132.327 0.201207 131.878 0.490541 131.552 0.897258L112.427 24.8035C112.146 25.1551 111.969 25.5791 111.918 26.0267C111.867 26.4742 111.944 26.9271 112.139 27.3331C112.334 27.7391 112.64 28.0817 113.021 28.3215C113.402 28.5612 113.844 28.6884 114.294 28.6883ZM129.997 10.4962L128.656 21.22C128.614 21.5563 128.644 21.8977 128.744 22.2216C128.844 22.5455 129.012 22.8444 129.236 23.0985C129.461 23.3526 129.736 23.5561 130.045 23.6955C130.354 23.8349 130.689 23.907 131.028 23.907H135.617L124.889 37.3178L126.229 26.5941C126.271 26.2577 126.241 25.9162 126.141 25.5923C126.041 25.2684 125.873 24.9694 125.649 24.7153C125.425 24.4612 125.149 24.2577 124.84 24.1183C124.531 23.979 124.196 23.9069 123.856 23.907H119.268L129.997 10.4962Z" fill="#082B1C"/>
<path d="M52.2682 165.08C56.9482 165.08 60.5666 166.488 63.1232 169.305C65.7232 172.122 67.0232 175.935 67.0232 180.745V202H52.6582V182.565C52.6582 181.005 52.1816 179.792 51.2282 178.925C50.3182 178.015 49.0832 177.56 47.5232 177.56C45.9199 177.56 44.6632 178.015 43.7532 178.925C42.8432 179.792 42.3882 181.005 42.3882 182.565V202H28.0232V182.565C28.0232 181.005 27.5466 179.792 26.5932 178.925C25.6832 178.015 24.4482 177.56 22.8882 177.56C21.2849 177.56 20.0282 178.015 19.1182 178.925C18.2082 179.792 17.7532 181.005 17.7532 182.565V202H3.32324V165.34H17.7532V170.28C18.7932 168.72 20.2016 167.463 21.9782 166.51C23.7982 165.557 25.9216 165.08 28.3482 165.08C30.9916 165.08 33.3316 165.665 35.3682 166.835C37.4049 167.962 39.0299 169.565 40.2432 171.645C41.5866 169.738 43.2982 168.178 45.3782 166.965C47.4582 165.708 49.7549 165.08 52.2682 165.08ZM80.5544 162.415C78.0411 162.415 76.0261 161.743 74.5094 160.4C72.9927 159.057 72.2344 157.367 72.2344 155.33C72.2344 153.25 72.9927 151.538 74.5094 150.195C76.0261 148.808 78.0411 148.115 80.5544 148.115C83.0244 148.115 85.0177 148.808 86.5344 150.195C88.0511 151.538 88.8094 153.25 88.8094 155.33C88.8094 157.367 88.0511 159.057 86.5344 160.4C85.0177 161.743 83.0244 162.415 80.5544 162.415ZM87.7044 165.34V202H73.2744V165.34H87.7044ZM133.027 165.34V202H118.597V196.41C117.47 198.143 115.953 199.552 114.047 200.635C112.183 201.718 109.952 202.26 107.352 202.26C103.148 202.26 99.855 200.852 97.4717 198.035C95.1317 195.218 93.9617 191.405 93.9617 186.595V165.34H108.327V184.775C108.327 186.508 108.782 187.895 109.692 188.935C110.645 189.932 111.902 190.43 113.462 190.43C115.065 190.43 116.322 189.932 117.232 188.935C118.142 187.895 118.597 186.508 118.597 184.775V165.34H133.027ZM162.359 189.715V202H156.899C146.846 202 141.819 196.995 141.819 186.985V177.365H137.269V165.34H141.819V156.5H156.249V165.34H162.229V177.365H156.249V187.245C156.249 188.112 156.444 188.74 156.834 189.13C157.267 189.52 157.961 189.715 158.914 189.715H162.359ZM206.659 165.34V202H192.229V196.41C191.103 198.143 189.586 199.552 187.679 200.635C185.816 201.718 183.584 202.26 180.984 202.26C176.781 202.26 173.488 200.852 171.104 198.035C168.764 195.218 167.594 191.405 167.594 186.595V165.34H181.959V184.775C181.959 186.508 182.414 187.895 183.324 188.935C184.278 189.932 185.534 190.43 187.094 190.43C188.698 190.43 189.954 189.932 190.864 188.935C191.774 187.895 192.229 186.508 192.229 184.775V165.34H206.659Z" fill="#082B1C"/>
</svg>
