<svg id="Capa_1" enable-background="new 0 0 512 512" height="512" viewBox="0 0 512 512" width="512" xmlns="http://www.w3.org/2000/svg"><g><path d="m451.024 115v-35h-90v35h-210.047v-35h-90v35h-60.977v30h512v-30z"/><path d="m260.377 235h-28.121l-13.583 63.5h30.105l-4.814 40.202 40.437-60.202h-32.467z"/><path d="m30.977 175v267h450.046v-267zm295.898 94.07-96.006 142.93h-25.897l10-83.5h-33.395l26.417-123.5h88.766l-8.443 43.5h38.559v20.57z"/><path d="m75.977 10h60v40h-60z"/><path d="m376.024 10h60v40h-60z"/><path d="m0 472h512v30h-512z"/></g></svg>