<svg width="58" height="58" viewBox="0 0 58 58" fill="none" xmlns="http://www.w3.org/2000/svg">
<path d="M34.1263 36.4991H30.6313C29.6263 36.4991 28.6625 36.0999 27.9519 35.3893C27.2413 34.6786 26.842 33.7148 26.842 32.7099V31.9654L29.8868 28.9207H45.7882V32.7099C45.7882 33.7148 45.3889 34.6786 44.6783 35.3893C43.9677 36.0999 43.0039 36.4991 41.9989 36.4991H34.1263Z" fill="#C66B60"/>
<path d="M26.842 16.9802V6.84851H45.7882V28.9207H29.8868L30.5521 28.2554C31.0948 27.7123 31.3997 26.9759 31.3997 26.2081C31.3997 25.4403 31.0948 24.7039 30.5521 24.1608L29.8701 23.4787L26.842 25.876V16.9802ZM40.6716 18.0602C40.9015 17.4585 41.0033 16.8155 40.9703 16.1722C40.8376 13.8006 38.9687 11.6809 36.3675 11.6519C33.7663 11.6229 31.8505 13.7014 31.6655 16.0697C31.6179 16.7123 31.7056 17.3577 31.9229 17.9643C32.1533 18.5961 32.5093 19.1746 32.9694 19.665L36.2393 23.2269L39.5872 19.7386C40.0583 19.2581 40.4272 18.6871 40.6716 18.0602Z" fill="#F8EC7D"/>
<path d="M45.7882 6.18534V6.84845H26.842V6.18534C26.842 5.18038 27.2413 4.21657 27.9519 3.50596C28.6625 2.79534 29.6263 2.39612 30.6313 2.39612H41.9989C43.0039 2.39612 43.9677 2.79534 44.6783 3.50596C45.3889 4.21657 45.7882 5.18038 45.7882 6.18534Z" fill="#C66B60"/>
<path d="M40.9702 16.1721C41.0032 16.8153 40.9014 17.4584 40.6715 18.06C40.4271 18.687 40.0582 19.2579 39.5871 19.7384L36.2392 23.2267L32.9693 19.6649C32.5092 19.1745 32.1532 18.596 31.9228 17.9642C31.7056 17.3576 31.6179 16.7122 31.6654 16.0696C31.8504 13.7013 33.7662 11.6228 36.3674 11.6518C38.9686 11.6808 40.8375 13.8005 40.9702 16.1721ZM38.3166 16.0874C38.3106 15.6943 38.1888 15.3117 37.9665 14.9875C37.7441 14.6632 37.4311 14.4117 37.0666 14.2645C36.7021 14.1172 36.3022 14.0807 35.9171 14.1595C35.5319 14.2383 35.1785 14.4289 34.9012 14.7075C34.6238 14.9861 34.4347 15.3404 34.3576 15.7259C34.2805 16.1114 34.3188 16.5111 34.4676 16.8749C34.6165 17.2388 34.8694 17.5507 35.1946 17.7716C35.5198 17.9925 35.9029 18.1126 36.2961 18.1169C36.833 18.1153 37.3474 17.9007 37.7262 17.5202C38.1051 17.1397 38.3174 16.6244 38.3166 16.0874Z" fill="#16BB3A"/>
<path d="M36.3407 14.0135C36.749 14.0071 37.1499 14.1227 37.4921 14.3454C37.8344 14.568 38.1024 14.8877 38.262 15.2636C38.4216 15.6394 38.4655 16.0543 38.3881 16.4552C38.3107 16.8561 38.1154 17.2248 37.8273 17.5141C37.5393 17.8035 37.1714 18.0003 36.7709 18.0795C36.3703 18.1587 35.9552 18.1167 35.5787 17.9587C35.2022 17.8008 34.8813 17.5341 34.6571 17.1929C34.4329 16.8516 34.3156 16.4512 34.3202 16.043C34.3194 15.506 34.5317 14.9907 34.9105 14.6101C35.2894 14.2296 35.8038 14.015 36.3407 14.0135Z" fill="white"/>
<path d="M26.8421 31.9655V32.71C26.8421 33.2076 26.9401 33.7003 27.1305 34.16C27.3209 34.6198 27.6001 35.0375 27.9519 35.3893C28.3038 35.7412 28.7215 36.0203 29.1812 36.2107C29.641 36.4012 30.1337 36.4992 30.6313 36.4992H34.1263V39.9964C34.1261 41.0199 33.7194 42.0015 32.9957 42.7252C32.2719 43.4489 31.2904 43.8556 30.2669 43.8558V46.6565H15.2136V28.0659C15.2133 27.0542 15.6103 26.0829 16.3192 25.3611L26.8421 16.9802V25.876L29.8701 23.4787L30.5522 24.1608C31.0949 24.7039 31.3997 25.4403 31.3997 26.2081C31.3997 26.9759 31.0949 27.7123 30.5522 28.2554L29.8868 28.9207L26.8421 31.9655Z" fill="#FCC69A"/>
<path d="M32.7754 47.7709V53.5506C32.7754 53.8462 32.658 54.1296 32.449 54.3386C32.24 54.5476 31.9565 54.6651 31.6609 54.6651H13.1428C12.8472 54.6651 12.5637 54.5476 12.3547 54.3386C12.1457 54.1296 12.0283 53.8462 12.0283 53.5506V47.7709C12.0283 47.4753 12.1457 47.1919 12.3547 46.9829C12.5637 46.7739 12.8472 46.6564 13.1428 46.6564H31.6609C31.9565 46.6564 32.24 46.7739 32.449 46.9829C32.658 47.1919 32.7754 47.4753 32.7754 47.7709ZM17.6743 50.7566C17.6651 50.4722 17.5723 50.1968 17.4076 49.9647C17.2429 49.7327 17.0134 49.5543 16.748 49.4518C16.4825 49.3493 16.1927 49.3273 15.9148 49.3884C15.6369 49.4496 15.3831 49.5913 15.1852 49.7957C14.9873 50.0002 14.8539 50.2584 14.8019 50.5382C14.7498 50.818 14.7812 51.1069 14.8923 51.3689C15.0034 51.6309 15.1891 51.8544 15.4264 52.0115C15.6637 52.1686 15.942 52.2523 16.2266 52.2522C16.6168 52.2457 16.9885 52.0844 17.2599 51.804C17.5314 51.5236 17.6804 51.1468 17.6743 50.7566Z" fill="#E48E66"/>
<path d="M16.2268 52.2522C17.0263 52.2522 17.6745 51.5826 17.6745 50.7566C17.6745 49.9306 17.0263 49.261 16.2268 49.261C15.4272 49.261 14.7791 49.9306 14.7791 50.7566C14.7791 51.5826 15.4272 52.2522 16.2268 52.2522Z" fill="#F8EC7D"/>
<path d="M34.7951 39.9963V37.1678H41.9991C43.181 37.1665 44.3141 36.6964 45.1498 35.8606C45.9855 35.0249 46.4556 33.8918 46.457 32.7099V6.18533C46.4556 5.00342 45.9855 3.87031 45.1498 3.03457C44.3141 2.19884 43.181 1.72874 41.9991 1.72742H30.6314C29.4495 1.72874 28.3164 2.19884 27.4806 3.03457C26.6449 3.87031 26.1748 5.00342 26.1735 6.18533V16.6583L15.9025 24.838C15.8813 24.8548 15.8612 24.873 15.8423 24.8923C15.008 25.7375 14.5417 26.8783 14.545 28.0659V45.9878H13.143C12.6703 45.9883 12.217 46.1764 11.8828 46.5107C11.5485 46.8449 11.3604 47.2982 11.3599 47.7709V53.5506C11.3604 54.0233 11.5485 54.4766 11.8828 54.8109C12.217 55.1452 12.6703 55.3332 13.143 55.3338H31.6612C32.1339 55.3332 32.5872 55.1452 32.9214 54.8109C33.2557 54.4766 33.4438 54.0233 33.4443 53.5506V47.7709C33.4438 47.2982 33.2557 46.8449 32.9214 46.5107C32.5872 46.1764 32.1339 45.9883 31.6612 45.9878H30.9356V44.4752C32.0083 44.3136 32.9875 43.7729 33.6956 42.9511C34.4037 42.1294 34.7938 41.0811 34.7951 39.9963ZM41.9991 35.8304H30.6314C29.8041 35.8295 29.0109 35.5004 28.4259 34.9154C27.8409 34.3304 27.5118 33.5372 27.5109 32.7099V32.2424L30.164 29.5893H45.1196V32.7099C45.1187 33.5372 44.7896 34.3304 44.2046 34.9154C43.6196 35.5004 42.8264 35.8295 41.9991 35.8304ZM31.025 23.6879L30.343 23.0058C30.227 22.8899 30.0725 22.8206 29.9088 22.8111C29.7451 22.8016 29.5836 22.8526 29.4551 22.9544L27.5109 24.4938V7.51712H45.1196V28.252H31.4235C31.903 27.5653 32.1258 26.7319 32.053 25.8976C31.9802 25.0632 31.6163 24.281 31.025 23.6879ZM30.6314 3.06479H41.9991C42.8254 3.0657 43.6178 3.394 44.2026 3.97781C44.7875 4.56162 45.1172 5.35338 45.1196 6.17975H27.5109C27.5133 5.35338 27.843 4.56162 28.4278 3.97781C29.0127 3.394 29.805 3.0657 30.6314 3.06479ZM32.107 47.7709V53.5506C32.107 53.6688 32.06 53.7822 31.9764 53.8658C31.8928 53.9494 31.7794 53.9964 31.6612 53.9964H13.143C13.0248 53.9964 12.9114 53.9494 12.8278 53.8658C12.7442 53.7822 12.6972 53.6688 12.6972 53.5506V47.7709C12.6972 47.6527 12.7442 47.5393 12.8278 47.4557C12.9114 47.3721 13.0248 47.3251 13.143 47.3251H31.6612C31.7794 47.3251 31.8928 47.3721 31.9764 47.4557C32.06 47.5393 32.107 47.6527 32.107 47.7709ZM15.8824 45.9878V28.0659C15.88 27.2426 16.198 26.4507 16.7691 25.8576L26.1735 18.3676V25.5527L20.185 30.2944C20.1158 30.3487 20.058 30.4163 20.0149 30.493C19.9718 30.5698 19.9444 30.6543 19.9341 30.7417C19.9237 30.8291 19.9308 30.9177 19.9548 31.0024C19.9788 31.0871 20.0192 31.1662 20.0739 31.2352C20.1285 31.3042 20.1962 31.3618 20.2732 31.4045C20.3501 31.4473 20.4347 31.4745 20.5222 31.4845C20.6096 31.4945 20.6982 31.4871 20.7828 31.4628C20.8674 31.4385 20.9463 31.3978 21.0151 31.3429L29.8184 24.3725L30.0794 24.6336C30.4961 25.0516 30.7301 25.6178 30.7301 26.208C30.7301 26.7983 30.4961 27.3644 30.0794 27.7824L25.9859 31.8759C25.8701 31.9918 25.8008 32.1461 25.7912 32.3097L25.739 33.2024C25.7382 33.2154 25.7377 33.2284 25.7377 33.2415C25.7382 33.5774 25.7781 33.9122 25.8564 34.2388C25.9339 34.5586 26.0435 34.8698 26.1835 35.1675C26.514 35.877 26.6569 36.6595 26.5986 37.44C26.5402 38.2205 26.2825 38.973 25.8501 39.6254C25.7768 39.7353 25.7377 39.8644 25.7377 39.9964V41.9256C25.7377 42.1029 25.8082 42.273 25.9336 42.3984C26.059 42.5238 26.2291 42.5943 26.4064 42.5943C26.5838 42.5943 26.7538 42.5238 26.8792 42.3984C27.0047 42.273 27.0751 42.1029 27.0751 41.9256V40.192C27.8033 39.0019 28.0882 37.5929 27.8796 36.2133C28.6632 36.8323 29.6328 37.1686 30.6314 37.1678H33.4577V39.9963C33.4568 40.8423 33.1203 41.6533 32.5221 42.2515C31.9239 42.8497 31.1129 43.1861 30.267 43.1871C30.0896 43.1871 29.9195 43.2575 29.7941 43.3829C29.6687 43.5083 29.5983 43.6784 29.5983 43.8558V45.9878H15.8824Z" fill="black"/>
<path d="M16.2266 52.921C16.6567 52.9306 17.08 52.8119 17.4423 52.5799C17.8047 52.3479 18.0897 52.0133 18.261 51.6186C18.4323 51.2239 18.4821 50.7872 18.4041 50.3641C18.326 49.941 18.1237 49.5507 17.8229 49.2431C17.5221 48.9355 17.1365 48.7245 16.7152 48.637C16.294 48.5495 15.8562 48.5896 15.4578 48.752C15.0594 48.9144 14.7185 49.1918 14.4784 49.5489C14.2384 49.906 14.1102 50.3264 14.1102 50.7567C14.1046 51.3241 14.3242 51.8707 14.7209 52.2764C15.1177 52.6821 15.6592 52.9139 16.2266 52.921ZM16.2266 49.9297C16.3923 49.9199 16.5571 49.9599 16.6997 50.0448C16.8422 50.1297 16.9561 50.2554 17.0264 50.4057C17.0967 50.5561 17.1202 50.724 17.0939 50.8879C17.0676 51.0517 16.9927 51.2039 16.8789 51.3247C16.7652 51.4455 16.6177 51.5293 16.4557 51.5653C16.2937 51.6013 16.1247 51.5878 15.9704 51.5266C15.8162 51.4654 15.6839 51.3593 15.5907 51.222C15.4974 51.0847 15.4476 50.9226 15.4476 50.7567C15.4417 50.5438 15.5203 50.3373 15.6663 50.1823C15.8123 50.0274 16.0138 49.9365 16.2266 49.9297Z" fill="#63316D"/>
<path d="M38.067 32.0412H34.562C34.3847 32.0412 34.2146 32.1116 34.0892 32.2371C33.9638 32.3625 33.8933 32.5325 33.8933 32.7099C33.8933 32.8872 33.9638 33.0573 34.0892 33.1827C34.2146 33.3081 34.3847 33.3786 34.562 33.3786H38.067C38.2444 33.3786 38.4145 33.3081 38.5399 33.1827C38.6653 33.0573 38.7357 32.8872 38.7357 32.7099C38.7357 32.5325 38.6653 32.3625 38.5399 32.2371C38.4145 32.1116 38.2444 32.0412 38.067 32.0412Z" fill="#63316D"/>
<path d="M35.7467 23.679C35.8085 23.7463 35.8835 23.8002 35.9669 23.8375C36.0504 23.8747 36.1406 23.8944 36.232 23.8954H36.2393C36.3295 23.8954 36.4186 23.8772 36.5016 23.8419C36.5845 23.8066 36.6594 23.7548 36.7218 23.6898L40.0693 20.2015C40.6039 19.6563 41.0216 19.0078 41.2972 18.2957C41.5608 17.6071 41.6769 16.8708 41.638 16.1344C41.4781 13.2771 39.1663 11.0143 36.3753 10.9831H36.3173C33.5511 10.9831 31.2207 13.1836 30.9993 16.0182C30.9438 16.7536 31.0437 17.4924 31.2927 18.1866C31.5523 18.9041 31.9554 19.5611 32.4774 20.1175L35.7467 23.679ZM32.3322 16.1216C32.4787 14.2452 34.006 12.3201 36.3137 12.3201H36.3599C38.6932 12.3462 40.1968 14.3179 40.3026 16.2085C40.3311 16.7589 40.2437 17.3091 40.0463 17.8235C39.8343 18.3663 39.514 18.8602 39.105 19.2751L36.2505 22.2496L33.4621 19.2123C33.0626 18.7886 32.7535 18.2881 32.5536 17.7412C32.3669 17.2228 32.2915 16.671 32.3322 16.1216Z" fill="#01BC1F"/>
<path d="M36.2889 18.7856H36.3187C36.6669 18.7859 37.0116 18.7169 37.3328 18.5825C37.6541 18.4482 37.9453 18.2512 38.1896 18.003C38.6948 17.4958 38.9806 16.8105 38.9855 16.0946C38.9994 15.3805 38.7296 14.6901 38.2353 14.1746C37.7409 13.6591 37.0624 13.3607 36.3483 13.3447H36.3184C35.9702 13.3445 35.6254 13.4135 35.3042 13.5479C34.983 13.6822 34.6918 13.8792 34.4475 14.1273C33.9423 14.6346 33.6565 15.32 33.6516 16.0359C33.6378 16.7499 33.9076 17.4404 34.402 17.9558C34.8963 18.4713 35.5749 18.7697 36.2889 18.7856ZM35.3953 15.0707C35.5158 14.9479 35.6595 14.8502 35.818 14.7835C35.9766 14.7167 36.1469 14.6822 36.3189 14.682H36.3335C36.6931 14.6936 37.0334 14.8473 37.2799 15.1094C37.5264 15.3714 37.659 15.7205 37.6486 16.0801C37.6468 16.4472 37.5008 16.799 37.2421 17.0595C37.1217 17.1824 36.9781 17.2801 36.8195 17.3468C36.6609 17.4136 36.4906 17.448 36.3186 17.4482H36.3041C35.9445 17.4366 35.6042 17.2829 35.3577 17.0208C35.1112 16.7587 34.9786 16.4096 34.989 16.05C34.9909 15.6829 35.1368 15.3313 35.3953 15.0707Z" fill="#044E03"/>
</svg>
