<svg width="59" height="41" viewBox="0 0 59 41" fill="none" xmlns="http://www.w3.org/2000/svg">
<rect x="8.06274" y="0.71777" width="42.6389" height="30.5177" rx="1.82738" fill="#C4C4C4" fill-opacity="0.78" stroke="black" stroke-width="1.21825"/>
<path d="M27.1893 5.15747C24.9964 5.15747 22.8036 6.60001 22.0726 7.32129V8.04256L30.1131 28.9594L34.4988 28.2382L39.6155 24.6318L41.8083 20.3042V13.8127L39.6155 8.76383L34.4988 5.15747H27.1893Z" fill="#434343"/>
<rect x="0.144043" y="15.9767" width="5.84762" height="1.44254" fill="black"/>
<mask id="path-4-inside-1" fill="white">
<path fill-rule="evenodd" clip-rule="evenodd" d="M10.7967 1.44884C9.19601 0.807168 7.45361 1.98588 7.45361 3.7104V30.1777C7.45361 31.1827 8.07065 32.0845 9.00735 32.4486L28.1723 39.8985C29.7919 40.528 31.531 39.3085 31.491 37.5714L31.2926 28.9596H32.7933C38.1759 28.9596 42.5393 24.5961 42.5393 19.2135V14.1823C42.5393 8.79975 38.1759 4.4363 32.7933 4.4363H27.433C25.4822 4.4363 23.6652 5.00946 22.1414 5.99657L10.7967 1.44884ZM31.2646 27.7413L30.8811 11.0925C30.8587 10.1175 30.257 9.24989 29.3518 8.88703L23.5792 6.57296C24.7367 5.98559 26.0462 5.65456 27.433 5.65456H32.7933C37.5031 5.65456 41.3211 9.47258 41.3211 14.1823V19.2135C41.3211 23.9233 37.5031 27.7413 32.7933 27.7413H31.2646Z"/>
</mask>
<path fill-rule="evenodd" clip-rule="evenodd" d="M10.7967 1.44884C9.19601 0.807168 7.45361 1.98588 7.45361 3.7104V30.1777C7.45361 31.1827 8.07065 32.0845 9.00735 32.4486L28.1723 39.8985C29.7919 40.528 31.531 39.3085 31.491 37.5714L31.2926 28.9596H32.7933C38.1759 28.9596 42.5393 24.5961 42.5393 19.2135V14.1823C42.5393 8.79975 38.1759 4.4363 32.7933 4.4363H27.433C25.4822 4.4363 23.6652 5.00946 22.1414 5.99657L10.7967 1.44884ZM31.2646 27.7413L30.8811 11.0925C30.8587 10.1175 30.257 9.24989 29.3518 8.88703L23.5792 6.57296C24.7367 5.98559 26.0462 5.65456 27.433 5.65456H32.7933C37.5031 5.65456 41.3211 9.47258 41.3211 14.1823V19.2135C41.3211 23.9233 37.5031 27.7413 32.7933 27.7413H31.2646Z" fill="#5FF188"/>
<path d="M10.7967 1.44884L11.25 0.318059L10.7967 1.44884ZM9.00735 32.4486L9.44874 31.3132H9.44874L9.00735 32.4486ZM28.1723 39.8985L27.731 41.034L28.1723 39.8985ZM31.491 37.5714L32.7089 37.5434L31.491 37.5714ZM31.2926 28.9596V27.7413H30.046L30.0747 28.9876L31.2926 28.9596ZM22.1414 5.99657L21.6881 7.12736L22.274 7.36221L22.8037 7.01905L22.1414 5.99657ZM30.8811 11.0925L32.099 11.0644V11.0644L30.8811 11.0925ZM31.2646 27.7413L30.0466 27.7694L30.0741 28.9596H31.2646V27.7413ZM29.3518 8.88703L28.8985 10.0178H28.8985L29.3518 8.88703ZM23.5792 6.57296L23.0279 5.48658L20.6302 6.70329L23.1259 7.70374L23.5792 6.57296ZM8.67187 3.7104C8.67187 2.84814 9.54307 2.25879 10.3434 2.57962L11.25 0.318059C8.84896 -0.64445 6.23536 1.12362 6.23536 3.7104H8.67187ZM8.67187 30.1777V3.7104H6.23536V30.1777H8.67187ZM9.44874 31.3132C8.98039 31.1311 8.67187 30.6802 8.67187 30.1777H6.23536C6.23536 31.6851 7.16092 33.0379 8.56596 33.5841L9.44874 31.3132ZM28.6137 38.763L9.44874 31.3132L8.56596 33.5841L27.731 41.034L28.6137 38.763ZM30.273 37.5995C30.2931 38.468 29.4235 39.0778 28.6137 38.763L27.731 41.034C30.1602 41.9783 32.7689 40.1491 32.7089 37.5434L30.273 37.5995ZM30.0747 28.9876L30.273 37.5995L32.7089 37.5434L32.5106 28.9315L30.0747 28.9876ZM31.2926 30.1778H32.7933V27.7413H31.2926V30.1778ZM32.7933 30.1778C38.8487 30.1778 43.7576 25.2689 43.7576 19.2135H41.3211C41.3211 23.9233 37.5031 27.7413 32.7933 27.7413V30.1778ZM43.7576 19.2135V14.1823H41.3211V19.2135H43.7576ZM43.7576 14.1823C43.7576 8.12693 38.8487 3.21805 32.7933 3.21805V5.65456C37.5031 5.65456 41.3211 9.47258 41.3211 14.1823H43.7576ZM32.7933 3.21805H27.433V5.65456H32.7933V3.21805ZM27.433 3.21805C25.2401 3.21805 23.1942 3.86307 21.479 4.9741L22.8037 7.01905C24.1363 6.15586 25.7242 5.65456 27.433 5.65456V3.21805ZM10.3434 2.57962L21.6881 7.12736L22.5947 4.86579L11.25 0.318059L10.3434 2.57962ZM29.6632 11.1205L30.0466 27.7694L32.4825 27.7133L32.099 11.0644L29.6632 11.1205ZM28.8985 10.0178C29.3511 10.1992 29.6519 10.6331 29.6632 11.1205L32.099 11.0644C32.0654 9.60201 31.1629 8.30054 29.8051 7.75625L28.8985 10.0178ZM23.1259 7.70374L28.8985 10.0178L29.8051 7.75625L24.0325 5.44218L23.1259 7.70374ZM27.433 4.4363C25.8502 4.4363 24.3523 4.81451 23.0279 5.48658L24.1305 7.65934C25.1211 7.15667 26.2421 6.87281 27.433 6.87281V4.4363ZM32.7933 4.4363H27.433V6.87281H32.7933V4.4363ZM42.5393 14.1823C42.5393 8.79975 38.1759 4.4363 32.7933 4.4363V6.87281C36.8302 6.87281 40.1028 10.1454 40.1028 14.1823H42.5393ZM42.5393 19.2135V14.1823H40.1028V19.2135H42.5393ZM32.7933 28.9596C38.1759 28.9596 42.5393 24.5961 42.5393 19.2135H40.1028C40.1028 23.2505 36.8302 26.5231 32.7933 26.5231V28.9596ZM31.2646 28.9596H32.7933V26.5231H31.2646V28.9596Z" fill="black" mask="url(#path-4-inside-1)"/>
<rect x="52.7726" y="15.9767" width="5.84762" height="1.44254" fill="black"/>
<rect x="44.6103" y="13.7007" width="3.16746" height="5.99447" rx="1.58373" stroke="black" stroke-width="1.21825"/>
</svg>
