<svg width="59" height="60" viewBox="0 0 59 60" fill="none" xmlns="http://www.w3.org/2000/svg">
<path d="M29.3822 51.7678H34.8643V57.25H29.3822V51.7678Z" fill="#4D5D7A"/>
<path d="M5.62622 57.25V51.7678H11.1084V57.25" fill="#4D5D7A"/>
<path d="M33.0369 44.4584L36.6917 46.2858V49.9405C36.6917 51.9589 35.0553 53.5953 33.0369 53.5953H7.45359C5.43525 53.5953 3.79883 51.9589 3.79883 49.9405V46.2858L7.45359 44.4584H33.0369Z" fill="#C66B60"/>
<path d="M5.62621 45.3721L11.1084 47.1995V49.9405H3.79883V46.2858" fill="#F9D18B"/>
<path d="M34.8643 45.3721L29.3822 47.1995V49.9405H36.6917V46.2858" fill="#F9D18B"/>
<path d="M33.0369 44.4583L29.479 37.3416C28.8596 36.1035 27.5941 35.3214 26.2099 35.3214H14.2807C12.8965 35.3214 11.631 36.1035 11.0115 37.3416L7.45361 44.4583" fill="#C7E2FC"/>
<path d="M12.9357 42.6309C18.7385 42.6309 23.6313 39.5463 25.1974 35.3214H14.2806C12.8964 35.3214 11.6309 36.1035 11.0115 37.3416L8.66418 42.0352C10.0018 42.4144 11.4354 42.6309 12.9357 42.6309Z" fill="#EBF7FE"/>
<path d="M36.6916 46.2857H38.519V42.631H34.8642L33.0369 44.4584" fill="#8892A0"/>
<path d="M3.79882 46.2857H1.97144V42.631H5.6262L7.45358 44.4584" fill="#8892A0"/>
<path d="M41.2601 24.3572H48.5697V29.8393H41.2601V24.3572Z" fill="#976947"/>
<path d="M41.2601 53.5952H48.5697V57.25H41.2601V53.5952Z" fill="#976947"/>
<path d="M43.0875 29.8394H46.7423V53.5953H43.0875V29.8394Z" fill="#C18E59"/>
<path d="M44.9148 26.1845C51.4749 26.1845 56.7928 20.8666 56.7928 14.3066C56.7928 7.74654 51.4749 2.42859 44.9148 2.42859C38.3548 2.42859 33.0369 7.74654 33.0369 14.3066C33.0369 20.8666 38.3548 26.1845 44.9148 26.1845Z" fill="#2B74CA"/>
<path d="M33.0369 14.3066C33.0369 16.822 33.8236 19.151 35.1575 21.0715C36.3673 21.4224 37.6473 21.6161 38.9759 21.6161C46.2927 21.6161 52.2244 15.8891 52.2244 8.82442C52.2244 7.24648 51.9146 5.74163 51.3728 4.34643C49.5134 3.13761 47.2987 2.42859 44.9148 2.42859C38.3545 2.42859 33.0369 7.74627 33.0369 14.3066Z" fill="#3D98F7"/>
<path d="M1.05774 56.3363H57.7066V58.1637H1.05774V56.3363Z" fill="black"/>
<path d="M44.9148 27.0982C37.8611 27.0982 32.1232 21.3603 32.1232 14.3066C32.1232 7.25287 37.8611 1.51489 44.9148 1.51489C51.9685 1.51489 57.7065 7.25287 57.7065 14.3066C57.7065 21.3603 51.9685 27.0982 44.9148 27.0982ZM44.9148 3.34227C38.8689 3.34227 33.9506 8.26067 33.9506 14.3066C33.9506 20.3525 38.8689 25.2708 44.9148 25.2708C50.9607 25.2708 55.8791 20.3525 55.8791 14.3066C55.8791 8.26067 50.9607 3.34227 44.9148 3.34227Z" fill="black"/>
<path d="M43.0875 21.6161H41.2601V8.82446C41.2601 8.31919 41.6695 7.91077 42.1738 7.91077H46.7423C48.7579 7.91077 50.397 9.54993 50.397 11.5655C50.397 13.5811 48.7579 15.2203 46.7423 15.2203H43.0875V21.6161ZM43.0875 13.3929H46.7423C47.7501 13.3929 48.5697 12.5733 48.5697 11.5655C48.5697 10.5577 47.7501 9.73815 46.7423 9.73815H43.0875V13.3929Z" fill="black"/>
<path d="M48.5697 30.753H41.2601C40.7558 30.753 40.3464 30.3446 40.3464 29.8393V26.1846H42.1738V28.9256H47.656V26.1846H49.4833V29.8393C49.4833 30.3446 49.074 30.753 48.5697 30.753Z" fill="black"/>
<path d="M42.1738 29.8394H44.0012V53.5953H42.1738V29.8394Z" fill="black"/>
<path d="M45.8286 29.8394H47.656V53.5953H45.8286V29.8394Z" fill="black"/>
<path d="M49.4833 57.25H47.656V54.5089H42.1738V57.25H40.3464V53.5952C40.3464 53.0899 40.7558 52.6815 41.2601 52.6815H48.5697C49.074 52.6815 49.4833 53.0899 49.4833 53.5952V57.25Z" fill="black"/>
<path d="M33.0369 54.509H7.45358C4.93454 54.509 2.88513 52.4596 2.88513 49.9405V46.2857C2.88513 45.9395 3.08066 45.6233 3.3904 45.468L7.04517 43.6406C7.17125 43.5776 7.31196 43.5447 7.45358 43.5447H33.0369C33.1785 43.5447 33.3193 43.5776 33.4453 43.6406L37.1001 45.468C37.4098 45.6233 37.6054 45.9395 37.6054 46.2857V49.9405C37.6054 52.4596 35.556 54.509 33.0369 54.509ZM4.71251 46.8504V49.9405C4.71251 51.4518 5.94234 52.6816 7.45358 52.6816H33.0369C34.5482 52.6816 35.778 51.4518 35.778 49.9405V46.8504L32.8213 45.3721H7.66922L4.71251 46.8504Z" fill="black"/>
<path d="M10.1947 53.5952H12.0221V57.25H10.1947V53.5952Z" fill="black"/>
<path d="M4.71252 52.6815H6.53991V57.25H4.71252V52.6815Z" fill="black"/>
<path d="M33.9506 52.6815H35.7779V57.25H33.9506V52.6815Z" fill="black"/>
<path d="M28.4685 53.5952H30.2959V57.25H28.4685V53.5952Z" fill="black"/>
<path d="M11.1084 50.8541H3.79883V49.0267H10.1947V47.8581L5.33748 46.2391L5.91585 44.5067L11.398 46.3341C11.7708 46.4574 12.022 46.8056 12.022 47.1994V49.9404C12.022 50.4457 11.6127 50.8541 11.1084 50.8541Z" fill="black"/>
<path d="M36.6917 50.8542H29.3822C28.8778 50.8542 28.4685 50.4458 28.4685 49.9405V47.1994C28.4685 46.8056 28.7198 46.4575 29.0935 46.3332L34.5756 44.5059L35.154 46.2382L30.2959 47.8582V49.0268H36.6917V50.8542Z" fill="black"/>
<path d="M13.8494 49.0269H26.641V50.8542H13.8494V49.0269Z" fill="black"/>
<path d="M32.2192 44.8667L28.6604 37.75C28.1944 36.8162 27.2542 36.2351 26.2099 36.2351H14.2807C13.2355 36.2351 12.2962 36.8162 11.8293 37.75L8.27046 44.8667L6.63586 44.049L10.1947 36.9332C10.9741 35.3753 12.5392 34.4077 14.2807 34.4077H26.2099C27.9514 34.4077 29.5174 35.3753 30.2959 36.9332L33.8547 44.0499L32.2192 44.8667Z" fill="black"/>
<path d="M38.519 47.1994H36.6916V45.372H37.6053V43.5447H35.2425L33.6828 45.1043L32.3909 43.8124L34.2183 41.985C34.3891 41.8132 34.6221 41.7173 34.8642 41.7173H38.519C39.0233 41.7173 39.4327 42.1257 39.4327 42.631V46.2857C39.4327 46.791 39.0233 47.1994 38.519 47.1994Z" fill="black"/>
<path d="M3.79881 47.1994H1.97143C1.46707 47.1994 1.05774 46.791 1.05774 46.2857V42.631C1.05774 42.1257 1.46707 41.7173 1.97143 41.7173H5.62619C5.86832 41.7173 6.10131 41.8132 6.27217 41.985L8.09955 43.8124L6.80759 45.1043L5.24792 43.5447H2.88512V45.372H3.79881V47.1994Z" fill="black"/>
</svg>
