<?xml version="1.0" encoding="iso-8859-1"?>
<!-- Generator: Adobe Illustrator 16.0.0, SVG Export Plug-In . SVG Version: 6.00 Build 0)  -->
<!DOCTYPE svg PUBLIC "-//W3C//DTD SVG 1.1//EN" "http://www.w3.org/Graphics/SVG/1.1/DTD/svg11.dtd">
<svg version="1.1" id="Capa_1" xmlns="http://www.w3.org/2000/svg" xmlns:xlink="http://www.w3.org/1999/xlink" x="0px" y="0px"
	 width="287.973px" height="287.973px" viewBox="0 0 287.973 287.973" style="enable-background:new 0 0 287.973 287.973;"
	 xml:space="preserve">
<g>
	<g>
		<path d="M143.983,287.973c79.396,0,143.989-64.594,143.989-143.989S223.379,0,143.983,0S0,64.588,0,143.983
			S64.588,287.973,143.983,287.973z M47.213,152.696c4.137,46.321,40.851,83.4,87.037,88.012v28.319
			c-61.79-4.769-111.08-54.404-115.361-116.331H47.213z M197.354,74.139c2.642-2.294,5.98-3.744,9.691-4.002
			c0.385-0.027,0.751-0.117,1.141-0.117c9.151,0,16.573,7.419,16.573,16.57c0,0.997-0.126,1.966-0.3,2.916
			c-0.648,3.639-2.486,6.842-5.099,9.247c-2.275,2.096-5.128,3.567-8.311,4.119c-0.937,0.165-1.892,0.288-2.876,0.288
			c-9.146,0-16.567-7.422-16.567-16.57c0-1.625,0.307-3.167,0.745-4.648C193.259,78.873,194.994,76.186,197.354,74.139z
			 M152.696,152.696h69.554c-4.047,36.479-33.074,65.506-69.554,69.554V152.696z M208.175,116.013c3.086,0,6.011-0.609,8.809-1.495
			c2.522,6.221,4.246,12.838,5.11,19.731h-69.397V65.726c10.269,1.138,19.948,4.23,28.649,8.935
			c-1.634,3.651-2.582,7.68-2.582,11.929C178.764,102.817,191.956,116.013,208.175,116.013z M134.25,134.249H65.885
			c4.422-35.65,32.714-63.941,68.365-68.364V134.249z M134.25,152.696v69.392c-35.996-4.462-64.521-33.255-68.524-69.392H134.25z
			 M152.696,269.081v-28.318c46.657-4.174,83.894-41.409,88.061-88.066h28.33C264.776,214.966,214.966,264.775,152.696,269.081z
			 M240.709,134.249c-1.093-10.913-4.071-21.257-8.479-30.811c3.352-4.779,5.369-10.571,5.369-16.843
			c0-16.222-13.199-29.417-29.424-29.417c-5.092,0-9.818,1.423-13.997,3.708c-12.328-7.47-26.385-12.322-41.481-13.676V18.891
			C214.624,23.17,264.26,72.46,269.033,134.249H240.709z M134.25,18.939v28.321c-45.847,4.582-82.407,41.142-86.982,86.988H18.946
			C23.692,72.796,72.797,23.692,134.25,18.939z"/>
	</g>
</g>
<g>
</g>
<g>
</g>
<g>
</g>
<g>
</g>
<g>
</g>
<g>
</g>
<g>
</g>
<g>
</g>
<g>
</g>
<g>
</g>
<g>
</g>
<g>
</g>
<g>
</g>
<g>
</g>
<g>
</g>
</svg>
