<svg width="58" height="58" viewBox="0 0 58 58" fill="none" xmlns="http://www.w3.org/2000/svg">
<path d="M36.2297 50.4847C38.2001 50.4847 39.796 52.0807 39.796 54.0511V55.8342H2.34961V54.0511C2.34961 52.0807 3.94554 50.4847 5.91594 50.4847H9.48226H21.0728H32.6634H36.2297Z" fill="#969FAA"/>
<path d="M9.48234 9.47192H32.6635C34.633 9.47192 36.2298 11.0687 36.2298 13.0383V50.4847H5.91602V13.0383C5.91602 11.0687 7.51284 9.47192 9.48234 9.47192Z" fill="#FFEAA7"/>
<path d="M28.7136 13.0383H31.7717C32.2621 13.0383 32.6633 13.4395 32.6633 13.9299V26.4121C32.6633 26.9024 32.2621 27.3036 31.7717 27.3036H10.3738C9.88339 27.3036 9.48218 26.9024 9.48218 26.4121V13.9299C9.48218 13.4395 9.88339 13.0383 10.3738 13.0383H13.4319C13.1822 13.814 13.0485 14.6343 13.0485 15.4634V15.7131C13.0485 20.1442 16.6416 23.7373 21.0727 23.7373C23.2839 23.7373 25.2988 22.8368 26.7432 21.3835C28.1965 19.9392 29.097 17.9242 29.097 15.7131V15.4634C29.097 14.6343 28.9632 13.814 28.7136 13.0383Z" fill="#E6E9ED"/>
<path d="M9.48218 30.8699V50.4847H21.0727H32.6633V36.2194V30.8699H9.48218Z" fill="#E6E9ED"/>
<path d="M26.4222 36.2194H29.9886C29.9886 39.1705 27.5902 41.5688 24.6391 41.5688H21.0728C21.0728 38.6177 23.4711 36.2194 26.4222 36.2194Z" fill="#B4DD7F"/>
<path d="M21.0728 46.9184H15.7233C13.7529 46.9184 12.157 45.3224 12.157 43.3521H17.5065C19.4769 43.3521 21.0728 44.948 21.0728 46.9184Z" fill="#B4DD7F"/>
<path d="M21.0728 39.7858H17.5065C14.5553 39.7858 12.157 37.3874 12.157 34.4363H15.7233C18.6744 34.4363 21.0728 36.8346 21.0728 39.7858Z" fill="#B4DD7F"/>
<path d="M29.0971 15.4634V15.7131C29.0971 17.9242 28.1966 19.9392 26.7433 21.3835C25.2989 22.8368 23.2839 23.7373 21.0728 23.7373C16.6417 23.7373 13.0486 20.1442 13.0486 15.7131V15.4634C13.0486 14.6343 13.1823 13.814 13.432 13.0383C13.6549 12.3251 13.9758 11.6386 14.3949 11.0144L15.4202 9.47201H15.4291L19.6909 3.07937C19.994 2.61575 20.52 2.33936 21.0728 2.33936C21.6256 2.33936 22.1516 2.61575 22.4548 3.07937L26.7165 9.47201H26.7254L27.7508 11.0144C28.1698 11.6386 28.4908 12.3251 28.7137 13.0383C28.9633 13.814 29.0971 14.6343 29.0971 15.4634Z" fill="#FCD770"/>
<path d="M54.0613 29.0868V32.6531C52.0909 32.6531 50.495 34.249 50.495 36.2194V39.7857H48.7118H45.1455V29.0868C45.1455 28.106 45.9479 27.3036 46.9287 27.3036H50.495H52.2782C53.2589 27.3036 54.0613 28.106 54.0613 29.0868Z" fill="#FF826E"/>
<path d="M55.5503 15.6149C56.0942 16.4352 55.8713 17.5407 55.051 18.0846L51.2885 20.5989C50.7893 20.9287 50.495 21.4815 50.495 22.0789V27.3036H46.9287V22.0789C46.9287 20.2868 47.8203 18.6195 49.3092 17.6299L53.0717 15.1245C53.3659 14.9284 53.7047 14.8214 54.0614 14.8214C54.6587 14.8214 55.2115 15.1156 55.5503 15.6149Z" fill="#E6E9ED"/>
<path d="M20.1811 17.4963C19.6889 17.4963 19.2895 17.0968 19.2895 16.6047H17.5063C17.5063 18.0794 18.7064 19.2794 20.1811 19.2794V21.0626H21.9643V19.2794H24.639V16.6047C24.639 15.13 23.4389 13.9299 21.9643 13.9299H20.1811C19.6889 13.9299 19.2895 13.5305 19.2895 13.0384V12.1468H21.9643C22.4564 12.1468 22.8558 12.5462 22.8558 13.0384H24.639C24.639 11.5637 23.4389 10.3636 21.9643 10.3636V8.58044H20.1811V10.3636H17.5063V13.0384C17.5063 14.513 18.7064 15.7131 20.1811 15.7131H21.9643C22.4564 15.7131 22.8558 16.1125 22.8558 16.6047V17.4963H20.1811Z" fill="black"/>
<path d="M56.2885 15.1228C55.7919 14.3757 54.96 13.9299 54.0613 13.9299C53.5335 13.9299 53.0208 14.085 52.5777 14.3793L48.8162 16.8864C47.0758 18.0463 46.0371 19.9882 46.0371 22.0798V26.577C45.002 26.9461 44.2539 27.9268 44.2539 29.0877V40.6782H47.8203V53.1604C47.8203 54.1438 47.0205 54.9435 46.0371 54.9435C45.0537 54.9435 44.2539 54.1438 44.2539 53.1604V46.0277C44.2539 44.0609 42.6544 42.4614 40.6876 42.4614H37.1213V13.0383C37.1213 10.5802 35.1215 8.58041 32.6634 8.58041H27.1962L23.2001 2.5863C22.7249 1.87393 21.9296 1.44775 21.0728 1.44775C20.216 1.44775 19.4207 1.87393 18.9446 2.5863L14.9494 8.58041H9.48224C7.02415 8.58041 5.02433 10.5802 5.02433 13.0383V49.6832C2.99242 50.0978 1.45801 51.8988 1.45801 54.0511V56.7258H40.6876V54.0511C40.6876 51.8988 39.1532 50.0978 37.1213 49.6832V44.2437H40.6876C41.671 44.2437 42.4708 45.0434 42.4708 46.0268V53.1595C42.4708 55.1263 44.0703 56.7258 46.0371 56.7258C48.0039 56.7258 49.6034 55.1263 49.6034 53.1595V40.6773H51.3866V36.2194C51.3866 34.7448 52.5867 33.5447 54.0613 33.5447H54.9529V29.0868C54.9529 27.6121 53.7528 26.412 52.2782 26.412H51.3866V22.0798C51.3866 21.7812 51.5355 21.5039 51.7833 21.338L55.5449 18.8309C56.7717 18.0133 57.1052 16.3496 56.2885 15.1228ZM20.4282 3.57596C20.7153 3.14443 21.4294 3.14443 21.7165 3.57596L27.0072 11.511C27.7909 12.687 28.2055 14.0556 28.2055 15.4679V15.7131C28.2055 19.6458 25.0056 22.8457 21.0728 22.8457C17.14 22.8457 13.9402 19.6458 13.9402 15.7131V15.4679C13.9402 14.0556 14.3547 12.6879 15.1384 11.511L20.4282 3.57596ZM29.8415 13.9299H31.7718V26.412H10.3738V13.9299H12.3041C12.2158 14.4354 12.157 14.9472 12.157 15.4679V15.7131C12.157 20.6292 16.1566 24.6289 21.0728 24.6289C25.989 24.6289 29.9886 20.6292 29.9886 15.7131V15.4679C29.9886 14.9472 29.9298 14.4354 29.8415 13.9299ZM9.48224 10.3636H13.7601L13.6548 10.5223C13.3134 11.0349 13.0495 11.5841 12.823 12.1467H10.3738C9.39041 12.1467 8.59066 12.9465 8.59066 13.9299V26.412C8.59066 27.3955 9.39041 28.1952 10.3738 28.1952H31.7718C32.7552 28.1952 33.5549 27.3955 33.5549 26.412V13.9299C33.5549 12.9465 32.7552 12.1467 31.7718 12.1467H29.3235C29.0961 11.5841 28.8331 11.034 28.4917 10.5223L28.3856 10.3636H32.6634C34.138 10.3636 35.3381 11.5636 35.3381 13.0383V49.5932H33.5549V29.9784H8.59066V49.5932H6.8075V13.0383C6.8075 11.5636 8.00757 10.3636 9.48224 10.3636ZM21.9644 46.9184V42.4605H24.6391C28.0797 42.4605 30.8802 39.66 30.8802 36.2194V35.3279H26.4223C24.4679 35.3279 22.7222 36.2319 21.5774 37.6433C20.7001 35.2556 18.4105 33.5447 15.7233 33.5447H11.2654V34.4363C11.2654 37.8769 14.0659 40.6773 17.5065 40.6773H20.1812V41.5689V42.4605V43.3753C19.4341 42.8091 18.514 42.4605 17.5065 42.4605H11.2654V43.3521C11.2654 45.8102 13.2652 47.81 15.7233 47.81H20.1812V49.5932H10.3738V31.7615H31.7718V49.5932H21.9644V47.81V46.9184ZM22.0544 40.6773C22.469 38.6454 24.2691 37.111 26.4223 37.111H29.007C28.5924 39.1429 26.7923 40.6773 24.6391 40.6773H22.0544ZM20.0912 38.8942H17.5065C15.3533 38.8942 13.5523 37.3598 13.1386 35.3279H15.7233C17.8765 35.3279 19.6775 36.8623 20.0912 38.8942ZM20.0288 46.0268H15.7233C14.5607 46.0268 13.5693 45.2815 13.201 44.2437H17.5065C18.6691 44.2437 19.6605 44.989 20.0288 46.0268ZM38.9044 54.0511V54.9426H3.24117V54.0511C3.24117 52.5764 4.44124 51.3763 5.91592 51.3763H36.2297C37.7044 51.3763 38.9044 52.5764 38.9044 54.0511ZM53.1697 29.0868V31.8516C51.1378 32.2662 49.6034 34.0663 49.6034 36.2194V38.8942H46.0371V29.0868C46.0371 28.5946 46.4365 28.1952 46.9287 28.1952H52.2782C52.7703 28.1952 53.1697 28.5946 53.1697 29.0868ZM54.5562 17.3464L50.7946 19.8536C50.0483 20.352 49.6034 21.1838 49.6034 22.0798V26.412H47.8203V22.0798C47.8203 20.5856 48.562 19.2 49.8058 18.3709L53.5656 15.8637C53.9677 15.5972 54.5419 15.714 54.8049 16.1098C55.0759 16.519 54.9654 17.0736 54.5562 17.3464Z" fill="black"/>
</svg>
