<svg width="26" height="20" viewBox="0 0 26 20" fill="none" xmlns="http://www.w3.org/2000/svg">
<path d="M22.7368 0H2.52632C1.13305 0 0 1.12125 0 2.5V17.5C0 18.8787 1.13305 20 2.52632 20H22.7368C24.1301 20 25.2632 18.8787 25.2632 17.5V2.5C25.2632 1.12125 24.1301 0 22.7368 0ZM13.2632 15C12.4256 15 11.6224 14.6708 11.0302 14.0847C10.438 13.4987 10.1053 12.7038 10.1053 11.875C10.1053 11.0462 10.438 10.2513 11.0302 9.66529C11.6224 9.07924 12.4256 8.75 13.2632 8.75C13.9486 8.75157 14.6145 8.97649 15.1579 9.39C14.3949 9.96 13.8947 10.8562 13.8947 11.875C13.8947 12.8938 14.3949 13.79 15.1579 14.36C14.6145 14.7735 13.9486 14.9984 13.2632 15ZM18.3158 15C17.4783 15 16.675 14.6708 16.0828 14.0847C15.4906 13.4987 15.1579 12.7038 15.1579 11.875C15.1579 11.0462 15.4906 10.2513 16.0828 9.66529C16.675 9.07924 17.4783 8.75 18.3158 8.75C19.1533 8.75 19.9565 9.07924 20.5488 9.66529C21.141 10.2513 21.4737 11.0462 21.4737 11.875C21.4737 12.7038 21.141 13.4987 20.5488 14.0847C19.9565 14.6708 19.1533 15 18.3158 15Z" fill="#2274A5"/>
</svg>
