<svg width="58" height="58" viewBox="0 0 58 58" fill="none" xmlns="http://www.w3.org/2000/svg">
<g clip-path="url(#clip0)">
<path d="M28.5307 0.112305L14.2654 28.6429L28.5307 57.1735C44.2877 57.1735 57.0613 44.3999 57.0613 28.6429C57.0613 12.8859 44.2877 0.112305 28.5307 0.112305Z" fill="#28ABFA"/>
<path d="M0 28.6429C0 44.3999 12.7736 57.1735 28.5306 57.1735V0.112305C12.7736 0.112305 0 12.8859 0 28.6429Z" fill="#14CFFF"/>
<path d="M28.5305 6.79919L17.6086 28.6429L28.5305 50.4867C40.5945 50.4867 50.3743 40.7069 50.3743 28.6429C50.3743 16.579 40.5945 6.79919 28.5305 6.79919Z" fill="#C4F3FF"/>
<path d="M6.68677 28.6429C6.68677 40.7069 16.4665 50.4867 28.5305 50.4867V6.79919C16.4665 6.79919 6.68677 16.579 6.68677 28.6429Z" fill="white"/>
<rect x="1.18878" y="1.30108" width="54.6837" height="54.6837" rx="27.3418" stroke="black" stroke-width="2.37755"/>
<rect x="7.73687" y="7.84905" width="42.5231" height="42.5231" rx="21.2615" stroke="black" stroke-width="2.37755"/>
<path d="M30.088 32.7221L30.1164 27.0229L28.7798 25.6729L27.2526 29.8583L27.2384 32.7079L30.088 32.7221Z" fill="#340D66"/>
<path d="M30.1736 15.5769L27.324 15.5627L27.2527 29.8583L30.1166 27.0229L30.1736 15.5769Z" fill="#373E9F"/>
<mask id="path-9-inside-1" fill="white">
<path fill-rule="evenodd" clip-rule="evenodd" d="M27.324 15.5615L30.1736 15.5757L30.1166 27.0217L30.1165 27.0217L30.0882 32.7209L27.2385 32.7067L27.2527 29.8571L27.2527 29.8571L27.324 15.5615Z"/>
</mask>
<path d="M30.1736 15.5757L31.3623 15.5816L31.3683 14.3929L30.1795 14.3869L30.1736 15.5757ZM27.324 15.5615L27.3299 14.3727L26.1411 14.3668L26.1352 15.5556L27.324 15.5615ZM30.1166 27.0217L30.9529 27.8665L31.3029 27.52L31.3053 27.0276L30.1166 27.0217ZM30.1165 27.0217L29.2802 26.1769L28.9302 26.5234L28.9278 27.0158L30.1165 27.0217ZM30.0882 32.7209L30.0822 33.9097L31.271 33.9156L31.2769 32.7268L30.0882 32.7209ZM27.2385 32.7067L26.0498 32.7008L26.0439 33.8896L27.2326 33.8955L27.2385 32.7067ZM27.2527 29.8571L26.1322 29.4602L26.065 29.6499L26.064 29.8512L27.2527 29.8571ZM27.2527 29.8571L28.3733 30.254L28.4405 30.0643L28.4415 29.863L27.2527 29.8571ZM30.1795 14.3869L27.3299 14.3727L27.318 16.7503L30.1676 16.7645L30.1795 14.3869ZM31.3053 27.0276L31.3623 15.5816L28.9848 15.5698L28.9278 27.0158L31.3053 27.0276ZM30.9529 27.8665L30.9529 27.8665L29.2802 26.1769L29.2802 26.1769L30.9529 27.8665ZM31.2769 32.7268L31.3053 27.0276L28.9278 27.0158L28.8994 32.715L31.2769 32.7268ZM27.2326 33.8955L30.0822 33.9097L30.0941 31.5322L27.2445 31.518L27.2326 33.8955ZM26.064 29.8512L26.0498 32.7008L28.4273 32.7126L28.4415 29.863L26.064 29.8512ZM26.1322 29.4601L26.1322 29.4602L28.3733 30.2541L28.3733 30.254L26.1322 29.4601ZM26.1352 15.5556L26.064 29.8512L28.4415 29.863L28.5127 15.5674L26.1352 15.5556Z" fill="black" mask="url(#path-9-inside-1)"/>
<path d="M41.61 27.0803L30.1164 27.023L25.916 28.5084L27.2526 29.8584L41.5958 29.9298L41.61 27.0803Z" fill="#373E9F"/>
<path d="M24.4172 26.9946L24.403 29.8442L27.2526 29.8584L30.1164 27.023L24.4172 26.9946Z" fill="#3857BC"/>
<mask id="path-13-inside-2" fill="white">
<path fill-rule="evenodd" clip-rule="evenodd" d="M30.1186 27.0262L41.6122 27.0835L41.5981 29.933L27.2548 29.8616L27.2548 29.8616L24.4052 29.8474L24.4194 26.9978L30.1186 27.0261L30.1186 27.0262L30.1186 27.0262Z"/>
</mask>
<path d="M41.6122 27.0835L42.801 27.0894L42.8069 25.9007L41.6182 25.8947L41.6122 27.0835ZM30.1186 27.0262L30.1246 25.8374L29.9171 25.8364L29.7215 25.9057L30.1186 27.0262ZM41.5981 29.933L41.5921 31.1217L42.7809 31.1277L42.7868 29.9389L41.5981 29.933ZM27.2548 29.8616L26.4101 30.698L26.7565 31.0479L27.2489 31.0504L27.2548 29.8616ZM27.2548 29.8616L28.0995 29.0252L27.7531 28.6753L27.2607 28.6728L27.2548 29.8616ZM24.4052 29.8474L23.2165 29.8414L23.2105 31.0302L24.3993 31.0361L24.4052 29.8474ZM24.4194 26.9978L24.4253 25.809L23.2366 25.8031L23.2307 26.9918L24.4194 26.9978ZM30.1186 27.0261L30.955 27.8709L32.9945 25.8517L30.1246 25.8374L30.1186 27.0261ZM30.1186 27.0262L29.2822 26.1814L30.5156 28.1467L30.1186 27.0262ZM41.6182 25.8947L30.1246 25.8374L30.1127 28.2149L41.6063 28.2723L41.6182 25.8947ZM42.7868 29.9389L42.801 27.0894L40.4235 27.0776L40.4093 29.9271L42.7868 29.9389ZM27.2489 31.0504L41.5921 31.1217L41.604 28.7442L27.2607 28.6728L27.2489 31.0504ZM26.41 30.698L26.4101 30.698L28.0996 29.0252L28.0995 29.0252L26.41 30.698ZM24.3993 31.0361L27.2489 31.0503L27.2607 28.6728L24.4111 28.6586L24.3993 31.0361ZM23.2307 26.9918L23.2165 29.8414L25.594 29.8533L25.6082 27.0037L23.2307 26.9918ZM30.1246 25.8374L24.4253 25.809L24.4135 28.1865L30.1127 28.2149L30.1246 25.8374ZM30.955 27.871L30.955 27.8709L29.2822 26.1814L29.2822 26.1814L30.955 27.871ZM29.7215 25.9057L29.7215 25.9057L30.5156 28.1467L30.5157 28.1467L29.7215 25.9057Z" fill="black" mask="url(#path-13-inside-2)"/>
<path d="M30.2022 10.1426H28.5305L27.416 11.8143L28.5305 13.486H30.2022V10.1426Z" fill="#340D66"/>
<path d="M26.8589 10.1426H28.5306V13.486H26.8589V10.1426Z" fill="#373E9F"/>
<path d="M30.2022 43.7998H28.5305L27.416 45.4715L28.5305 47.1432H30.2022V43.7998Z" fill="#340D66"/>
<path d="M26.8589 43.7998H28.5306V47.1432H26.8589V43.7998Z" fill="#373E9F"/>
<path d="M10.0303 30.3146V26.9711H13.3737V30.3146H10.0303Z" fill="#373E9F"/>
<path d="M43.6875 30.3146V26.9711H47.0309V30.3146H43.6875Z" fill="#340D66"/>
</g>
<defs>
<clipPath id="clip0">
<rect width="57.0612" height="57.0612" fill="white" transform="translate(0 0.112305)"/>
</clipPath>
</defs>
</svg>
