<svg id="Layer_1" enable-background="new 0 0 512.036 512.036" height="512" viewBox="0 0 512.036 512.036" width="512" xmlns="http://www.w3.org/2000/svg"><g><path d="m107.996 275.235 135.724 230.508c4.921 8.358 16.994 8.399 21.972.076l137.658-230.148c18.179-30.393 27.779-65.145 27.779-100.56 0-96.711-78.4-175.111-175.111-175.111-96.711 0-175.111 78.4-175.111 175.111v.727c0 34.956 9.353 69.275 27.089 99.397z" fill="#ff0031"/><path d="m256.018 0c-.626 0-1.247.017-1.87.023v511.978c4.431.198 8.95-1.846 11.544-6.183l137.658-230.147c18.179-30.393 27.779-65.145 27.779-100.56 0-96.711-78.4-175.111-175.111-175.111z" fill="#be2342"/><circle cx="254.642" cy="178.637" fill="#fff" r="82.304"/><path d="m254.642 96.333c-.166 0-.329.012-.494.013v164.582c.165.001.328.013.494.013 45.455 0 82.304-36.849 82.304-82.304s-36.849-82.304-82.304-82.304z" fill="#fff5f5"/></g></svg>